<?xml version="1.0" encoding="UTF-8" standalone="no"?>
<!DOCTYPE svg PUBLIC "-//W3C//DTD SVG 1.1//EN"
 "http://www.w3.org/Graphics/SVG/1.1/DTD/svg11.dtd">
<!-- Generated by graphviz version 2.38.0 (20140413.2041)
 -->
<!-- Title: classes_No_Name Pages: 1 -->
<svg width="850pt" height="623pt"
 viewBox="0.00 0.00 849.50 623.00" xmlns="http://www.w3.org/2000/svg" xmlns:xlink="http://www.w3.org/1999/xlink">
<g id="graph0" class="graph" transform="scale(1 1) rotate(0) translate(4 619)">
<title>classes_No_Name</title>
<polygon fill="white" stroke="none" points="-4,4 -4,-619 845.5,-619 845.5,4 -4,4"/>
<!-- 0 -->
<g id="node1" class="node"><title>0</title>
<polygon fill="none" stroke="black" points="25,-0.5 25,-115.5 178,-115.5 178,-0.5 25,-0.5"/>
<text text-anchor="middle" x="101.5" y="-100.3" font-family="Times,serif" font-size="14.00">ArrayHeapPriorityQueue</text>
<polyline fill="none" stroke="black" points="25,-92.5 178,-92.5 "/>
<polyline fill="none" stroke="black" points="25,-68.5 178,-68.5 "/>
<text text-anchor="start" x="33" y="-53.3" font-family="Times,serif" font-size="14.00">add()</text>
<text text-anchor="start" x="33" y="-38.3" font-family="Times,serif" font-size="14.00">is_empty()</text>
<text text-anchor="start" x="33" y="-23.3" font-family="Times,serif" font-size="14.00">min()</text>
<text text-anchor="start" x="33" y="-8.3" font-family="Times,serif" font-size="14.00">remove_min()</text>
</g>
<!-- 4 -->
<g id="node5" class="node"><title>4</title>
<polygon fill="none" stroke="black" points="0,-175.5 0,-274.5 89,-274.5 89,-175.5 0,-175.5"/>
<text text-anchor="middle" x="44.5" y="-259.3" font-family="Times,serif" font-size="14.00">HeapCentile</text>
<polyline fill="none" stroke="black" points="0,-251.5 89,-251.5 "/>
<text text-anchor="start" x="8" y="-236.3" font-family="Times,serif" font-size="14.00">heap_greater</text>
<text text-anchor="start" x="8" y="-221.3" font-family="Times,serif" font-size="14.00">heap_smaller</text>
<polyline fill="none" stroke="black" points="0,-213.5 89,-213.5 "/>
<text text-anchor="start" x="8" y="-198.3" font-family="Times,serif" font-size="14.00">append()</text>
<text text-anchor="start" x="8" y="-183.3" font-family="Times,serif" font-size="14.00">centile()</text>
</g>
<!-- 0&#45;&gt;4 -->
<g id="edge2" class="edge"><title>0&#45;&gt;4</title>
<path fill="none" stroke="black" d="M24.7225,-111.264C18.6608,-118.219 13.3901,-125.81 9.5,-134 5.0023,-143.469 4.79009,-153.683 7.03815,-163.711"/>
<polygon fill="black" stroke="black" points="7.09643,-163.897 12.7128,-168.42 10.698,-175.343 5.08159,-170.821 7.09643,-163.897"/>
<text text-anchor="middle" x="44.5" y="-137.8" font-family="Times,serif" font-size="14.00" fill="green">heap_greater</text>
</g>
<!-- 0&#45;&gt;4 -->
<g id="edge3" class="edge"><title>0&#45;&gt;4</title>
<path fill="none" stroke="black" d="M89.4512,-115.671C86.5732,-126.836 83.2356,-138.378 79.5,-149 77.7361,-154.015 75.751,-159.148 73.6454,-164.258"/>
<polygon fill="black" stroke="black" points="73.6145,-164.33 74.9245,-171.422 68.8826,-175.358 67.5727,-168.267 73.6145,-164.33"/>
<text text-anchor="middle" x="121" y="-137.8" font-family="Times,serif" font-size="14.00" fill="green">heap_smaller</text>
</g>
<!-- 6 -->
<g id="node7" class="node"><title>6</title>
<polygon fill="none" stroke="black" points="142,-167.5 142,-282.5 237,-282.5 237,-167.5 142,-167.5"/>
<text text-anchor="middle" x="189.5" y="-267.3" font-family="Times,serif" font-size="14.00">PriorityQueue</text>
<polyline fill="none" stroke="black" points="142,-259.5 237,-259.5 "/>
<polyline fill="none" stroke="black" points="142,-235.5 237,-235.5 "/>
<text text-anchor="start" x="150" y="-220.3" font-family="Times,serif" font-size="14.00">add()</text>
<text text-anchor="start" x="150" y="-205.3" font-family="Times,serif" font-size="14.00">is_empty()</text>
<text text-anchor="start" x="150" y="-190.3" font-family="Times,serif" font-size="14.00">min()</text>
<text text-anchor="start" x="150" y="-175.3" font-family="Times,serif" font-size="14.00">remove_min()</text>
</g>
<!-- 0&#45;&gt;6 -->
<g id="edge1" class="edge"><title>0&#45;&gt;6</title>
<path fill="none" stroke="black" d="M150.299,-115.639C154.393,-121.64 158.215,-127.815 161.5,-134 165.472,-141.479 168.982,-149.612 172.055,-157.829"/>
<polygon fill="none" stroke="black" points="168.833,-159.216 175.463,-167.48 175.433,-156.885 168.833,-159.216"/>
</g>
<!-- 1 -->
<g id="node2" class="node"><title>1</title>
<polygon fill="none" stroke="black" points="353,-334.5 353,-478.5 448,-478.5 448,-334.5 353,-334.5"/>
<text text-anchor="middle" x="400.5" y="-463.3" font-family="Times,serif" font-size="14.00">CasinoQueue</text>
<polyline fill="none" stroke="black" points="353,-455.5 448,-455.5 "/>
<text text-anchor="start" x="361" y="-440.3" font-family="Times,serif" font-size="14.00">broken_queue</text>
<text text-anchor="start" x="361" y="-425.3" font-family="Times,serif" font-size="14.00">centile</text>
<text text-anchor="start" x="361" y="-410.3" font-family="Times,serif" font-size="14.00">normal_queue</text>
<text text-anchor="start" x="361" y="-395.3" font-family="Times,serif" font-size="14.00">players : set</text>
<text text-anchor="start" x="361" y="-380.3" font-family="Times,serif" font-size="14.00">table_queue</text>
<polyline fill="none" stroke="black" points="353,-372.5 448,-372.5 "/>
<text text-anchor="start" x="361" y="-357.3" font-family="Times,serif" font-size="14.00">dequeue()</text>
<text text-anchor="start" x="361" y="-342.3" font-family="Times,serif" font-size="14.00">enqueue()</text>
</g>
<!-- 2 -->
<g id="node3" class="node"><title>2</title>
<polygon fill="none" stroke="black" points="344,-530.5 344,-614.5 457,-614.5 457,-530.5 344,-530.5"/>
<text text-anchor="middle" x="400.5" y="-599.3" font-family="Times,serif" font-size="14.00">CasinoQueueTest</text>
<polyline fill="none" stroke="black" points="344,-591.5 457,-591.5 "/>
<text text-anchor="start" x="352" y="-576.3" font-family="Times,serif" font-size="14.00">casino</text>
<polyline fill="none" stroke="black" points="344,-568.5 457,-568.5 "/>
<text text-anchor="start" x="352" y="-553.3" font-family="Times,serif" font-size="14.00">setUp()</text>
<text text-anchor="start" x="352" y="-538.3" font-family="Times,serif" font-size="14.00">test_centile()</text>
</g>
<!-- 1&#45;&gt;2 -->
<g id="edge4" class="edge"><title>1&#45;&gt;2</title>
<path fill="none" stroke="black" d="M400.5,-478.956C400.5,-492.162 400.5,-505.74 400.5,-518.288"/>
<polygon fill="black" stroke="black" points="400.5,-518.44 404.5,-524.44 400.5,-530.44 396.5,-524.44 400.5,-518.44"/>
<text text-anchor="middle" x="418" y="-500.8" font-family="Times,serif" font-size="14.00" fill="green">casino</text>
</g>
<!-- 3 -->
<g id="node4" class="node"><title>3</title>
<polygon fill="none" stroke="black" points="414.5,-23.5 414.5,-92.5 476.5,-92.5 476.5,-23.5 414.5,-23.5"/>
<text text-anchor="middle" x="445.5" y="-77.3" font-family="Times,serif" font-size="14.00">Element</text>
<polyline fill="none" stroke="black" points="414.5,-69.5 476.5,-69.5 "/>
<text text-anchor="start" x="422.5" y="-54.3" font-family="Times,serif" font-size="14.00">value</text>
<polyline fill="none" stroke="black" points="414.5,-46.5 476.5,-46.5 "/>
<text text-anchor="start" x="422.5" y="-31.3" font-family="Times,serif" font-size="14.00">next()</text>
</g>
<!-- 3&#45;&gt;3 -->
<g id="edge5" class="edge"><title>3&#45;&gt;3</title>
<path fill="none" stroke="black" d="M476.602,-42.6288C486.587,-42.7864 494.5,-47.9102 494.5,-58 494.5,-63.5179 492.133,-67.5505 488.355,-70.098"/>
<polygon fill="black" stroke="black" points="488.162,-70.1518 483.455,-75.6149 476.602,-73.3712 481.309,-67.9081 488.162,-70.1518"/>
<text text-anchor="middle" x="510" y="-54.3" font-family="Times,serif" font-size="14.00" fill="green">_next</text>
</g>
<!-- 7 -->
<g id="node8" class="node"><title>7</title>
<polygon fill="none" stroke="black" points="392,-168 392,-282 499,-282 499,-168 392,-168"/>
<text text-anchor="middle" x="445.5" y="-266.8" font-family="Times,serif" font-size="14.00">Queue</text>
<polyline fill="none" stroke="black" points="392,-259 499,-259 "/>
<text text-anchor="start" x="400" y="-243.8" font-family="Times,serif" font-size="14.00">first : NoneType</text>
<text text-anchor="start" x="400" y="-228.8" font-family="Times,serif" font-size="14.00">last : NoneType</text>
<polyline fill="none" stroke="black" points="392,-221 499,-221 "/>
<text text-anchor="start" x="400" y="-205.8" font-family="Times,serif" font-size="14.00">dequeue()</text>
<text text-anchor="start" x="400" y="-190.8" font-family="Times,serif" font-size="14.00">enqueue()</text>
<text text-anchor="start" x="400" y="-175.8" font-family="Times,serif" font-size="14.00">remove()</text>
</g>
<!-- 3&#45;&gt;7 -->
<g id="edge6" class="edge"><title>3&#45;&gt;7</title>
<path fill="none" stroke="black" d="M422.473,-92.5916C415.233,-105.033 408.173,-119.622 404.5,-134 402.626,-141.335 402.614,-148.814 403.878,-156.168"/>
<polygon fill="black" stroke="black" points="403.93,-156.369 409.318,-161.162 406.966,-167.979 401.578,-163.186 403.93,-156.369"/>
<text text-anchor="middle" x="414" y="-137.8" font-family="Times,serif" font-size="14.00" fill="green">last</text>
</g>
<!-- 3&#45;&gt;7 -->
<g id="edge7" class="edge"><title>3&#45;&gt;7</title>
<path fill="none" stroke="black" d="M445.5,-92.7884C445.5,-110.921 445.5,-133.946 445.5,-155.628"/>
<polygon fill="black" stroke="black" points="445.5,-155.843 449.5,-161.843 445.5,-167.843 441.5,-161.843 445.5,-155.843"/>
<text text-anchor="middle" x="455" y="-137.8" font-family="Times,serif" font-size="14.00" fill="green">last</text>
</g>
<!-- 3&#45;&gt;7 -->
<g id="edge8" class="edge"><title>3&#45;&gt;7</title>
<path fill="none" stroke="black" d="M458.679,-92.512C463.827,-109.339 467.975,-130.114 465.5,-149 465.198,-151.305 464.846,-153.64 464.452,-155.99"/>
<polygon fill="black" stroke="black" points="464.446,-156.02 467.235,-162.67 462.169,-167.802 459.38,-161.152 464.446,-156.02"/>
<text text-anchor="middle" x="476.5" y="-137.8" font-family="Times,serif" font-size="14.00" fill="green">first</text>
</g>
<!-- 5 -->
<g id="node6" class="node"><title>5</title>
<polygon fill="none" stroke="black" points="255.5,-182.5 255.5,-267.5 337.5,-267.5 337.5,-182.5 255.5,-182.5"/>
<text text-anchor="middle" x="296.5" y="-252.3" font-family="Times,serif" font-size="14.00">OrderedList</text>
<polyline fill="none" stroke="black" points="255.5,-244.5 337.5,-244.5 "/>
<polyline fill="none" stroke="black" points="255.5,-220.5 337.5,-220.5 "/>
<text text-anchor="start" x="263.5" y="-205.3" font-family="Times,serif" font-size="14.00">append()</text>
<text text-anchor="start" x="263.5" y="-190.3" font-family="Times,serif" font-size="14.00">centile()</text>
</g>
<!-- 5&#45;&gt;1 -->
<g id="edge9" class="edge"><title>5&#45;&gt;1</title>
<path fill="none" stroke="black" d="M299.235,-267.533C301.563,-283.379 305.805,-301.182 313.5,-316 321.295,-331.011 332.425,-345.188 344.131,-357.645"/>
<polygon fill="black" stroke="black" points="344.314,-357.832 351.371,-359.315 352.717,-366.399 345.66,-364.917 344.314,-357.832"/>
<text text-anchor="middle" x="332" y="-304.8" font-family="Times,serif" font-size="14.00" fill="green">centile</text>
</g>
<!-- 7&#45;&gt;1 -->
<g id="edge10" class="edge"><title>7&#45;&gt;1</title>
<path fill="none" stroke="black" d="M391.573,-259.4C377.906,-270.772 364.988,-284.779 357.5,-301 354.339,-307.846 353.097,-314.993 353.269,-322.195"/>
<polygon fill="black" stroke="black" points="353.297,-322.419 358.018,-327.87 354.803,-334.324 350.082,-328.873 353.297,-322.419"/>
<text text-anchor="middle" x="390.5" y="-304.8" font-family="Times,serif" font-size="14.00" fill="green">table_queue</text>
</g>
<!-- 7&#45;&gt;1 -->
<g id="edge11" class="edge"><title>7&#45;&gt;1</title>
<path fill="none" stroke="black" d="M431.871,-282.196C429.124,-293.401 426.238,-305.078 423.5,-316 422.967,-318.125 422.426,-320.278 421.878,-322.45"/>
<polygon fill="black" stroke="black" points="421.85,-322.562 424.255,-329.36 418.905,-334.195 416.5,-327.397 421.85,-322.562"/>
<text text-anchor="middle" x="467" y="-304.8" font-family="Times,serif" font-size="14.00" fill="green">normal_queue</text>
</g>
<!-- 7&#45;&gt;1 -->
<g id="edge12" class="edge"><title>7&#45;&gt;1</title>
<path fill="none" stroke="black" d="M499.246,-267.942C511.292,-282.457 518.446,-299.29 510.5,-316 499.324,-339.502 478.623,-358.855 458.169,-373.478"/>
<polygon fill="black" stroke="black" points="458.108,-373.519 455.401,-380.202 448.19,-380.274 450.898,-373.59 458.108,-373.519"/>
<text text-anchor="middle" x="552" y="-304.8" font-family="Times,serif" font-size="14.00" fill="green">broken_queue</text>
</g>
<!-- 8 -->
<g id="node9" class="node"><title>8</title>
<polygon fill="none" stroke="black" points="543.5,-0.5 543.5,-115.5 639.5,-115.5 639.5,-0.5 543.5,-0.5"/>
<text text-anchor="middle" x="591.5" y="-100.3" font-family="Times,serif" font-size="14.00">QueueTest</text>
<polyline fill="none" stroke="black" points="543.5,-92.5 639.5,-92.5 "/>
<polyline fill="none" stroke="black" points="543.5,-68.5 639.5,-68.5 "/>
<text text-anchor="start" x="551.5" y="-53.3" font-family="Times,serif" font-size="14.00">test_dequeue()</text>
<text text-anchor="start" x="551.5" y="-38.3" font-family="Times,serif" font-size="14.00">test_enqueue()</text>
<text text-anchor="start" x="551.5" y="-23.3" font-family="Times,serif" font-size="14.00">test_length()</text>
<text text-anchor="start" x="551.5" y="-8.3" font-family="Times,serif" font-size="14.00">test_remove()</text>
</g>
<!-- 9 -->
<g id="node10" class="node"><title>9</title>
<polygon fill="none" stroke="black" points="657.5,-16 657.5,-100 769.5,-100 769.5,-16 657.5,-16"/>
<text text-anchor="middle" x="713.5" y="-84.8" font-family="Times,serif" font-size="14.00">Table</text>
<polyline fill="none" stroke="black" points="657.5,-77 769.5,-77 "/>
<text text-anchor="start" x="665.5" y="-61.8" font-family="Times,serif" font-size="14.00">max_players : int</text>
<text text-anchor="start" x="665.5" y="-46.8" font-family="Times,serif" font-size="14.00">min_players : int</text>
<polyline fill="none" stroke="black" points="657.5,-39 769.5,-39 "/>
<text text-anchor="middle" x="713.5" y="-23.8" font-family="Times,serif" font-size="14.00"> </text>
</g>
<!-- 10 -->
<g id="node11" class="node"><title>10</title>
<polygon fill="none" stroke="black" points="787.5,-23 787.5,-93 841.5,-93 841.5,-23 787.5,-23"/>
<text text-anchor="middle" x="814.5" y="-77.8" font-family="Times,serif" font-size="14.00">_Item</text>
<polyline fill="none" stroke="black" points="787.5,-70 841.5,-70 "/>
<polyline fill="none" stroke="black" points="787.5,-46 841.5,-46 "/>
<text text-anchor="middle" x="814.5" y="-30.8" font-family="Times,serif" font-size="14.00"> </text>
</g>
</g>
</svg>
