<?xml version="1.0" encoding="UTF-8" standalone="no"?>
<!DOCTYPE svg PUBLIC "-//W3C//DTD SVG 1.1//EN"
 "http://www.w3.org/Graphics/SVG/1.1/DTD/svg11.dtd">
<!-- Generated by graphviz version 2.38.0 (20140413.2041)
 -->
<!-- Title: classes_No_Name Pages: 1 -->
<svg width="280pt" height="153pt"
 viewBox="0.00 0.00 279.50 153.00" xmlns="http://www.w3.org/2000/svg" xmlns:xlink="http://www.w3.org/1999/xlink">
<g id="graph0" class="graph" transform="scale(1 1) rotate(0) translate(4 149)">
<title>classes_No_Name</title>
<polygon fill="white" stroke="none" points="-4,4 -4,-149 275.5,-149 275.5,4 -4,4"/>
<!-- 0 -->
<g id="node1" class="node"><title>0</title>
<polygon fill="none" stroke="black" points="0,-0.5 0,-144.5 141,-144.5 141,-0.5 0,-0.5"/>
<text text-anchor="middle" x="70.5" y="-129.3" font-family="Times,serif" font-size="14.00">CasinoQueue</text>
<polyline fill="none" stroke="black" points="0,-121.5 141,-121.5 "/>
<text text-anchor="start" x="8" y="-106.3" font-family="Times,serif" font-size="14.00">broken_queue : Queue</text>
<text text-anchor="start" x="8" y="-91.3" font-family="Times,serif" font-size="14.00">normal_queue : Queue</text>
<text text-anchor="start" x="8" y="-76.3" font-family="Times,serif" font-size="14.00">players : set</text>
<text text-anchor="start" x="8" y="-61.3" font-family="Times,serif" font-size="14.00">table_queue : Queue</text>
<polyline fill="none" stroke="black" points="0,-53.5 141,-53.5 "/>
<text text-anchor="start" x="8" y="-38.3" font-family="Times,serif" font-size="14.00">centile()</text>
<text text-anchor="start" x="8" y="-23.3" font-family="Times,serif" font-size="14.00">dequeue()</text>
<text text-anchor="start" x="8" y="-8.3" font-family="Times,serif" font-size="14.00">enqueue()</text>
</g>
<!-- 1 -->
<g id="node2" class="node"><title>1</title>
<polygon fill="none" stroke="black" points="159.5,-30.5 159.5,-114.5 271.5,-114.5 271.5,-30.5 159.5,-30.5"/>
<text text-anchor="middle" x="215.5" y="-99.3" font-family="Times,serif" font-size="14.00">Table</text>
<polyline fill="none" stroke="black" points="159.5,-91.5 271.5,-91.5 "/>
<text text-anchor="start" x="167.5" y="-76.3" font-family="Times,serif" font-size="14.00">max_players : int</text>
<text text-anchor="start" x="167.5" y="-61.3" font-family="Times,serif" font-size="14.00">min_players : int</text>
<polyline fill="none" stroke="black" points="159.5,-53.5 271.5,-53.5 "/>
<text text-anchor="middle" x="215.5" y="-38.3" font-family="Times,serif" font-size="14.00"> </text>
</g>
</g>
</svg>
