<?xml version="1.0" encoding="UTF-8" standalone="no"?>
<!DOCTYPE svg PUBLIC "-//W3C//DTD SVG 1.1//EN"
 "http://www.w3.org/Graphics/SVG/1.1/DTD/svg11.dtd">
<!-- Generated by graphviz version 2.38.0 (20140413.2041)
 -->
<!-- Title: classes_No_Name Pages: 1 -->
<svg width="570pt" height="291pt"
 viewBox="0.00 0.00 569.50 291.00" xmlns="http://www.w3.org/2000/svg" xmlns:xlink="http://www.w3.org/1999/xlink">
<g id="graph0" class="graph" transform="scale(1 1) rotate(0) translate(4 287)">
<title>classes_No_Name</title>
<polygon fill="white" stroke="none" points="-4,4 -4,-287 565.5,-287 565.5,4 -4,4"/>
<!-- 0 -->
<g id="node1" class="node"><title>0</title>
<polygon fill="none" stroke="black" points="26,-0.5 26,-115.5 179,-115.5 179,-0.5 26,-0.5"/>
<text text-anchor="middle" x="102.5" y="-100.3" font-family="Times,serif" font-size="14.00">ArrayHeapPriorityQueue</text>
<polyline fill="none" stroke="black" points="26,-92.5 179,-92.5 "/>
<polyline fill="none" stroke="black" points="26,-68.5 179,-68.5 "/>
<text text-anchor="start" x="34" y="-53.3" font-family="Times,serif" font-size="14.00">add()</text>
<text text-anchor="start" x="34" y="-38.3" font-family="Times,serif" font-size="14.00">is_empty()</text>
<text text-anchor="start" x="34" y="-23.3" font-family="Times,serif" font-size="14.00">min()</text>
<text text-anchor="start" x="34" y="-8.3" font-family="Times,serif" font-size="14.00">remove_min()</text>
</g>
<!-- 2 -->
<g id="node3" class="node"><title>2</title>
<polygon fill="none" stroke="black" points="0,-175.5 0,-274.5 89,-274.5 89,-175.5 0,-175.5"/>
<text text-anchor="middle" x="44.5" y="-259.3" font-family="Times,serif" font-size="14.00">HeapCentile</text>
<polyline fill="none" stroke="black" points="0,-251.5 89,-251.5 "/>
<text text-anchor="start" x="8" y="-236.3" font-family="Times,serif" font-size="14.00">heap_greater</text>
<text text-anchor="start" x="8" y="-221.3" font-family="Times,serif" font-size="14.00">heap_smaller</text>
<polyline fill="none" stroke="black" points="0,-213.5 89,-213.5 "/>
<text text-anchor="start" x="8" y="-198.3" font-family="Times,serif" font-size="14.00">append()</text>
<text text-anchor="start" x="8" y="-183.3" font-family="Times,serif" font-size="14.00">centile()</text>
</g>
<!-- 0&#45;&gt;2 -->
<g id="edge2" class="edge"><title>0&#45;&gt;2</title>
<path fill="none" stroke="black" d="M25.7225,-111.264C19.6608,-118.219 14.3901,-125.81 10.5,-134 6.01897,-143.434 5.75563,-153.63 7.91687,-163.651"/>
<polygon fill="black" stroke="black" points="7.96241,-163.801 13.5377,-168.374 11.4603,-175.28 5.88506,-170.706 7.96241,-163.801"/>
<text text-anchor="middle" x="45.5" y="-137.8" font-family="Times,serif" font-size="14.00" fill="green">heap_greater</text>
</g>
<!-- 0&#45;&gt;2 -->
<g id="edge3" class="edge"><title>0&#45;&gt;2</title>
<path fill="none" stroke="black" d="M90.5427,-115.704C87.6572,-126.866 84.2934,-138.399 80.5,-149 78.6996,-154.032 76.6676,-159.175 74.5085,-164.294"/>
<polygon fill="black" stroke="black" points="74.4524,-164.422 75.6973,-171.524 69.6197,-175.405 68.3748,-168.303 74.4524,-164.422"/>
<text text-anchor="middle" x="122" y="-137.8" font-family="Times,serif" font-size="14.00" fill="green">heap_smaller</text>
</g>
<!-- 4 -->
<g id="node5" class="node"><title>4</title>
<polygon fill="none" stroke="black" points="143,-167.5 143,-282.5 238,-282.5 238,-167.5 143,-167.5"/>
<text text-anchor="middle" x="190.5" y="-267.3" font-family="Times,serif" font-size="14.00">PriorityQueue</text>
<polyline fill="none" stroke="black" points="143,-259.5 238,-259.5 "/>
<polyline fill="none" stroke="black" points="143,-235.5 238,-235.5 "/>
<text text-anchor="start" x="151" y="-220.3" font-family="Times,serif" font-size="14.00">add()</text>
<text text-anchor="start" x="151" y="-205.3" font-family="Times,serif" font-size="14.00">is_empty()</text>
<text text-anchor="start" x="151" y="-190.3" font-family="Times,serif" font-size="14.00">min()</text>
<text text-anchor="start" x="151" y="-175.3" font-family="Times,serif" font-size="14.00">remove_min()</text>
</g>
<!-- 0&#45;&gt;4 -->
<g id="edge1" class="edge"><title>0&#45;&gt;4</title>
<path fill="none" stroke="black" d="M151.299,-115.639C155.393,-121.64 159.215,-127.815 162.5,-134 166.472,-141.479 169.982,-149.612 173.055,-157.829"/>
<polygon fill="none" stroke="black" points="169.833,-159.216 176.463,-167.48 176.433,-156.885 169.833,-159.216"/>
</g>
<!-- 1 -->
<g id="node2" class="node"><title>1</title>
<polygon fill="none" stroke="black" points="278.5,-23.5 278.5,-92.5 340.5,-92.5 340.5,-23.5 278.5,-23.5"/>
<text text-anchor="middle" x="309.5" y="-77.3" font-family="Times,serif" font-size="14.00">Element</text>
<polyline fill="none" stroke="black" points="278.5,-69.5 340.5,-69.5 "/>
<text text-anchor="start" x="286.5" y="-54.3" font-family="Times,serif" font-size="14.00">value</text>
<polyline fill="none" stroke="black" points="278.5,-46.5 340.5,-46.5 "/>
<text text-anchor="start" x="286.5" y="-31.3" font-family="Times,serif" font-size="14.00">next()</text>
</g>
<!-- 1&#45;&gt;1 -->
<g id="edge4" class="edge"><title>1&#45;&gt;1</title>
<path fill="none" stroke="black" d="M340.602,-42.6288C350.587,-42.7864 358.5,-47.9102 358.5,-58 358.5,-63.5179 356.133,-67.5505 352.355,-70.098"/>
<polygon fill="black" stroke="black" points="352.162,-70.1518 347.455,-75.6149 340.602,-73.3712 345.309,-67.9081 352.162,-70.1518"/>
<text text-anchor="middle" x="374" y="-54.3" font-family="Times,serif" font-size="14.00" fill="green">_next</text>
</g>
<!-- 5 -->
<g id="node6" class="node"><title>5</title>
<polygon fill="none" stroke="black" points="256,-168 256,-282 363,-282 363,-168 256,-168"/>
<text text-anchor="middle" x="309.5" y="-266.8" font-family="Times,serif" font-size="14.00">Queue</text>
<polyline fill="none" stroke="black" points="256,-259 363,-259 "/>
<text text-anchor="start" x="264" y="-243.8" font-family="Times,serif" font-size="14.00">first : NoneType</text>
<text text-anchor="start" x="264" y="-228.8" font-family="Times,serif" font-size="14.00">last : NoneType</text>
<polyline fill="none" stroke="black" points="256,-221 363,-221 "/>
<text text-anchor="start" x="264" y="-205.8" font-family="Times,serif" font-size="14.00">dequeue()</text>
<text text-anchor="start" x="264" y="-190.8" font-family="Times,serif" font-size="14.00">enqueue()</text>
<text text-anchor="start" x="264" y="-175.8" font-family="Times,serif" font-size="14.00">remove()</text>
</g>
<!-- 1&#45;&gt;5 -->
<g id="edge5" class="edge"><title>1&#45;&gt;5</title>
<path fill="none" stroke="black" d="M286.473,-92.5916C279.233,-105.033 272.173,-119.622 268.5,-134 266.626,-141.335 266.614,-148.814 267.878,-156.168"/>
<polygon fill="black" stroke="black" points="267.93,-156.369 273.318,-161.162 270.966,-167.979 265.578,-163.186 267.93,-156.369"/>
<text text-anchor="middle" x="278" y="-137.8" font-family="Times,serif" font-size="14.00" fill="green">last</text>
</g>
<!-- 1&#45;&gt;5 -->
<g id="edge6" class="edge"><title>1&#45;&gt;5</title>
<path fill="none" stroke="black" d="M309.5,-92.7884C309.5,-110.921 309.5,-133.946 309.5,-155.628"/>
<polygon fill="black" stroke="black" points="309.5,-155.843 313.5,-161.843 309.5,-167.843 305.5,-161.843 309.5,-155.843"/>
<text text-anchor="middle" x="319" y="-137.8" font-family="Times,serif" font-size="14.00" fill="green">last</text>
</g>
<!-- 1&#45;&gt;5 -->
<g id="edge7" class="edge"><title>1&#45;&gt;5</title>
<path fill="none" stroke="black" d="M320.46,-92.5991C324.107,-105.409 327.697,-120.238 329.5,-134 330.419,-141.015 330.425,-148.291 329.805,-155.529"/>
<polygon fill="black" stroke="black" points="329.78,-155.721 332.967,-162.19 328.221,-167.619 325.034,-161.151 329.78,-155.721"/>
<text text-anchor="middle" x="340.5" y="-137.8" font-family="Times,serif" font-size="14.00" fill="green">first</text>
</g>
<!-- 3 -->
<g id="node4" class="node"><title>3</title>
<polygon fill="none" stroke="black" points="407.5,-15.5 407.5,-100.5 489.5,-100.5 489.5,-15.5 407.5,-15.5"/>
<text text-anchor="middle" x="448.5" y="-85.3" font-family="Times,serif" font-size="14.00">OrderedList</text>
<polyline fill="none" stroke="black" points="407.5,-77.5 489.5,-77.5 "/>
<polyline fill="none" stroke="black" points="407.5,-53.5 489.5,-53.5 "/>
<text text-anchor="start" x="415.5" y="-38.3" font-family="Times,serif" font-size="14.00">append()</text>
<text text-anchor="start" x="415.5" y="-23.3" font-family="Times,serif" font-size="14.00">centile()</text>
</g>
<!-- 6 -->
<g id="node7" class="node"><title>6</title>
<polygon fill="none" stroke="black" points="507.5,-23 507.5,-93 561.5,-93 561.5,-23 507.5,-23"/>
<text text-anchor="middle" x="534.5" y="-77.8" font-family="Times,serif" font-size="14.00">_Item</text>
<polyline fill="none" stroke="black" points="507.5,-70 561.5,-70 "/>
<polyline fill="none" stroke="black" points="507.5,-46 561.5,-46 "/>
<text text-anchor="middle" x="534.5" y="-30.8" font-family="Times,serif" font-size="14.00"> </text>
</g>
</g>
</svg>
